<svg xmlns="http://www.w3.org/2000/svg" enable-background="new 0 0 500 500" viewBox="0 0 500 500"><path d="M11.5 388h16.2c.4.5 2.9 4.7 7.3 12.5l2.1 3.7h.1v-16l.2-.2h13l.2.2V423l-.2.2H34.9l-4.2-7c-3.3-5.8-5.3-9.2-5.9-10.1V423l-.2.2H11.5l-.2-.2v-34.9l.2-.1zm54 0h19c2.9 0 5.6 1.3 8 3.8 1.3 1.7 2 3.3 2 4.7v17.8c0 2.7-1.6 5.1-4.7 7.2-1.8 1.1-4 1.6-6.6 1.6H66.8c-5.3 0-8.9-2.2-10.9-6.6-.3-1.1-.5-2.1-.5-3.2v-15.7c0-4.5 2.5-7.7 7.6-9.3.9-.2 1.8-.3 2.5-.3zm3.6 10.9v12.3c0 1.8.6 2.9 1.7 3.4h8.1c1.2 0 1.8-1 2-3.1v-12.6c0-2.2-.7-3.4-2.2-3.4h-7.3c-1.5 0-2.3 1.2-2.3 3.4zM98.6 388h31.6c2.7 0 4.8 1.1 6.4 3.2.8 1.1 1.2 2.8 1.2 5.1v6.6c0 3.9-1.9 6.6-5.7 7.9v.1l7.4 12.2-.2.2h-13.8c-.3-.4-2.8-4.4-7.3-12l-.1-.1H112l-.2.2V423l-.2.2h-13l-.2-.2v-34.9l.2-.1zm13.3 8.7v5.7h11.8c1.4 0 2.3-.5 2.6-1.5v-2.6c0-.8-.8-1.3-2.4-1.5h-12zm31.7-8.7h40.1l.2.2v7.3l-.2.2h-13.3V423l-.2.2h-13.1l-.1-.2v-27.5h-13.4l-.2-.2V388h.2zm44.4 0h13l.2.2v12h12.6v-12l.2-.2h13l.2.2V423l-.2.2h-13l-.2-.2v-14.3h-12.6V423l-.2.2h-13l-.2-.2v-34.9l.2-.1zm54 0h13.1l.2.2v26.5h20.5l.2.2v8.3l-.2.2H242l-.2-.2v-34.9l.2-.3zm47.6 0h19c2.9 0 5.6 1.3 8 3.8 1.3 1.7 2 3.3 2 4.7v17.8c0 2.7-1.6 5.1-4.7 7.2-1.8 1.1-4 1.6-6.6 1.6h-16.4c-5.3 0-8.9-2.2-10.9-6.6-.3-1.1-.5-2.1-.5-3.2v-15.7c0-4.5 2.5-7.7 7.6-9.3.9-.2 1.7-.3 2.5-.3zm3.6 10.9v12.3c0 1.8.6 2.9 1.7 3.4h8.1c1.2 0 1.8-1 2-3.1v-12.6c0-2.2-.7-3.4-2.2-3.4h-7.3c-1.6 0-2.3 1.2-2.3 3.4zm29.5-10.9h16.2c.4.5 2.9 4.7 7.3 12.5l2.1 3.7h.1v-16l.2-.2h13l.2.2V423l-.2.2H346l-4.2-7c-3.3-5.8-5.3-9.2-5.9-10.1V423l-.2.2h-13.1l-.2-.2v-34.9l.3-.1zm44 0h28.9c2.7 0 5.3 1.2 7.8 3.7 1.4 1.8 2.1 3.4 2.1 4.9v17.8c0 2.7-1.6 5.1-4.7 7.2-1.8 1.1-4 1.6-6.6 1.6h-27.4l-.2-.2v-34.9l.1-.1zm13.3 7.5v19.1h9.8c1.2 0 1.8-1.1 2-3.2v-12.5c0-2-.6-3.1-1.9-3.4H380zm38.4-7.5h19c2.9 0 5.6 1.3 8 3.8 1.3 1.7 2 3.3 2 4.7v17.8c0 2.7-1.6 5.1-4.7 7.2-1.8 1.1-4 1.6-6.6 1.6h-16.4c-5.3 0-8.9-2.2-10.9-6.6-.3-1.1-.5-2.1-.5-3.2v-15.7c0-4.5 2.5-7.7 7.6-9.3.9-.2 1.8-.3 2.5-.3zm3.6 10.9v12.3c0 1.8.6 2.9 1.7 3.4h8.1c1.2 0 1.8-1 2-3.1v-12.6c0-2.2-.7-3.4-2.2-3.4h-7.3c-1.5 0-2.3 1.2-2.3 3.4zm29.5-10.9h16.2c.4.5 2.9 4.7 7.3 12.5l2.1 3.7h.1v-16l.2-.2h13l.1.2V423l-.1.2h-15.6l-4.2-7c-3.3-5.8-5.3-9.2-5.9-10.1V423l-.2.2h-13.1l-.2-.2v-34.9l.3-.1zM50.3 433.2H73c1.2 0 2.2.7 3 2.2.2.5.3 1.1.3 1.9v4c0 2.2-.7 3.5-2.1 3.9-.3 0-.5.1-.5.2.9 0 1.8.7 2.7 2 .3.6.4 1.2.4 1.7v6.2c0 1.3-.8 2.5-2.3 3.4-.5.2-1.1.3-1.6.3H50.3l-.1-.1v-25.6l.1-.1zm9.7 5.7v4.2h5.7c1 0 1.6-.5 1.6-1.4v-1.5c-.2-.8-.6-1.2-1.2-1.2H60zm0 9.7v4.2h6.3l.1.1c.9 0 1.5-.5 1.5-1.6v-.7c0-1-.3-1.5-.8-1.7l-.8-.1H60zm26.8-15.5h13.9c2.2 0 4.1.9 5.9 2.8 1 1.2 1.5 2.4 1.5 3.5v13.1c0 2-1.2 3.8-3.5 5.3-1.3.8-2.9 1.2-4.8 1.2h-12c-3.9 0-6.6-1.6-8-4.8-.2-.8-.3-1.6-.3-2.4v-11.5c0-3.3 1.9-5.6 5.6-6.9.6-.2 1.2-.3 1.7-.3zm2.7 8.1v9c0 1.3.4 2.2 1.2 2.5h6c.9 0 1.3-.8 1.5-2.3v-9.2c0-1.6-.5-2.5-1.6-2.5h-5.4c-1.2 0-1.7.8-1.7 2.5zm21.7-8.1h12.4l4.3 5.1 4.3-5.1h12.6v.1L134.3 446l10.4 12.9-.1.1h-12.4l-4.3-5.2-4.3 5.2h-12.5l-.1-.1 10.6-12.9-10.4-12.8v-.1zm36 .1h9.5l.1.1v25.6l-.1.1h-9.5l-.1-.1v-25.6l.1-.1zm14.7-.1h11.9c.3.4 2.1 3.5 5.4 9.2l1.6 2.7h.1v-11.7l.1-.1h9.5l.1.1v25.6l-.1.1H179l-3.1-5.1c-2.4-4.2-3.9-6.7-4.3-7.4v12.4l-.1.1h-9.6l-.1-.1v-25.6l.1-.2zm39.9 0h13.9c2.4 0 4.5 1.1 6.3 3.3.7 1.2 1.1 2.2 1.1 3.1v3.4l-.1.1h-9.8l-.1-.1V441c-.1-1.6-.6-2.4-1.4-2.4H206c-.6 0-1.1.3-1.4 1-.2.4-.2.9-.2 1.3v9.2c0 1.6.6 2.5 1.8 2.5h5.1c1.2 0 1.8-.8 1.8-2.5v-2.8l.1-.1h9.8l.1.1V462l-.1.1c-6.6-2.2-10-3.4-10.2-3.4h-10.7c-2.7 0-4.9-1.1-6.6-3.4-.7-1-1.1-2.3-1.1-3.7v-11.5c0-3.3 1.8-5.6 5.5-6.9.7 0 1.4-.1 1.9-.1zm31.8 0H263l.1.1v5.3l-.1.1h-9.8v20.2l-.1.1h-9.6l-.1-.1v-20.2h-9.8l-.1-.1v-5.3l.1-.1zm32.5 0h23.2c1.9 0 3.5.8 4.7 2.4.6.8.9 2.1.9 3.7v4.8c0 2.9-1.4 4.8-4.2 5.8v.1l5.4 9-.1.1h-10c-.3-.3-2.1-3.2-5.4-8.8l-.1-.1h-4.6l-.1.1v8.7l-.1.1h-9.6l-.1-.1v-25.6l.1-.2zm9.8 6.4v4.2h8.6c1 0 1.7-.4 1.9-1.1v-1.9c0-.6-.6-1-1.7-1.1h-8.8zm45-6.4c.1 0 .3 1 .7 2.9 2.9 12.1 4.7 19.7 5.5 22.9l-.1.1h-9.8c-.1 0-.3-1.4-.7-4.1 0 0-.1-.2-.1-.4h-6.7c-.1 0-.3 1.2-.6 3.5-.1.7-.2 1-.3 1H299c.3-1.7 2.4-10.3 6.1-25.8h15.8zm-7.9 7l-1.6 7.8h3.3l-1.7-7.8zm15.9-6.9h9.5l.1.1v25.6l-.1.1h-9.5l-.1-.1v-25.6l.1-.1zm14.8-.1h11.9c.3.4 2.1 3.5 5.4 9.2l1.6 2.7h.1v-11.7l.1-.1h9.5l.1.1v25.6l-.1.1h-11.5l-3.1-5.1c-2.4-4.2-3.9-6.7-4.3-7.4v12.4l-.1.1h-9.6l-.1-.1v-25.6l.1-.2zm32.3.1h9.5l.1.1v25.6l-.1.1H376l-.1-.1v-25.6l.1-.1zm14.7-.1h11.9c.3.4 2.1 3.5 5.4 9.2l1.6 2.7h.1v-11.7l.1-.1h9.6l.1.1v25.6l-.1.1h-11.5l-3.1-5.1c-2.4-4.2-3.9-6.7-4.3-7.4v12.4l-.1.1h-9.6l-.1-.1v-25.8zm39.9 0h13.9c2.4 0 4.5 1.1 6.3 3.3.7 1.2 1.1 2.2 1.1 3.1v3.4l-.1.1H442l-.1-.1V441c-.1-1.6-.6-2.4-1.4-2.4h-5.6c-.6 0-1.1.3-1.4 1-.1.4-.2.9-.2 1.3v9.2c0 1.6.6 2.5 1.8 2.5h5.1c1.2 0 1.8-.8 1.8-2.5v-2.8l.1-.1h9.8l.1.1V462l-.1.1c-6.6-2.2-10-3.4-10.2-3.4H431c-2.7 0-4.9-1.1-6.6-3.4-.7-1-1.1-2.3-1.1-3.7v-11.5c0-3.3 1.8-5.6 5.5-6.9.6 0 1.3-.1 1.8-.1z" fill="#E92127"/><circle r="101.4" cy="204.5" cx="251" fill="#3B3A3C"/><path d="M346.5 204.5c0 52.8-42.8 95.5-95.5 95.5-52.8 0-95.5-42.8-95.5-95.5 0-52.8 42.8-95.5 95.5-95.5 52.8 0 95.5 42.7 95.5 95.5z" fill="#626366"/><path d="M251 81.7c-67.8 0-122.8 55-122.8 122.8s55 122.8 122.8 122.8 122.8-55 122.8-122.8S318.8 81.7 251 81.7zm0 230.9c-59.6 0-108.1-48.5-108.1-108.1 0-59.6 48.5-108.1 108.1-108.1 59.6 0 108.1 48.5 108.1 108.1 0 59.6-48.5 108.1-108.1 108.1z" fill="#3B3A3C"/><path fill="#929497" d="M304.3 279l-38.5-50.7 28.7 56.8-31.8-55.2 21.4 60-24.7-58.7 13.7 62.2L256 232l5.8 63.5-9.3-63.1-2.2 63.7-1.3-63.7-10.2 62.9 6.7-63.3-18 61 14.6-62-25.6 58.4 22.4-59.7-32.8 54.7 29.7-56.4-39.3 50.2 36.5-52.3-45.3 44.9 42.7-47.3-50.6 38.8 48.4-41.5-55 32.2 53.1-35.2-58.6 25 57.2-28.2-61.4 17.5 60.3-20.9-63.1 9.7 62.5-13.1-63.8 1.7 63.6-5.2-63.5-6.3 63.7 2.8-62.2-14.2 62.9 10.7-59.9-21.8 61 18.5-56.7-29.2 58.3 26-52.7-36 54.6 33.1-47.7-42.4 49.9 39.7-42-48 44.6 45.6-35.6-52.9 38.5 50.9-28.7-56.9 31.8 55.2-21.4-60 24.6 58.7-13.6-62.2L246 177l-5.8-63.5 9.3 63 2.2-63.6 1.3 63.7 10.2-62.9-6.7 63.4 18-61.1-14.6 61.9 25.6-58.3-22.4 59.7 32.7-54.7-29.6 56.4 39.3-50.2-36.5 52.3 45.3-44.9-42.7 47.3 50.6-38.8-48.4 41.5 55.1-32.2-53.2 35.2 58.6-25-57.2 28.2 61.4-17.5-60.3 20.9 63.1-9.7-62.5 13.1 63.8-1.7-63.6 5.2 63.5 6.3-63.7-2.8 62.2 14.2-62.9-10.7 59.9 21.8-61-18.5 56.7 29.2-58.3-26 52.7 36-54.6-33.1 47.7 42.4-49.9-39.7 42 48-44.6-45.6z"/><path fill="#E92127" d="M251 230.7l-42.9 31.2-1.6-1.1 16.4-50.5-42.9-31.2.6-1.8h53l16.4-50.5h2l16.4 50.5h53l.6 1.8-42.9 31.2 16.4 50.5-1.6 1.1z"/><path d="M251 127.1l16.6 51.2h53.8l-43.5 31.6 16.6 51.2-43.5-31.6-43.5 31.6 16.6-51.2-43.5-31.6h53.8l16.6-51.2m-1.9-.6l-16.2 49.8h-52.4l-1.2 3.6 42.4 30.8-16.2 49.8 3.1 2.2 42.4-30.8 42.4 30.8 3.1-2.2-16.2-49.8 42.4-30.8-1.2-3.6h-52.4l-16.2-49.8h-3.8z" fill="#58595B"/><path fill="#E92127" d="M251 228.2l-41.6 30.3 15.9-49-41.7-30.2h51.5l15.9-49 15.9 49h51.5l-41.7 30.2 15.9 49z"/><path d="M251 133.6l14.7 45.3.4 1.4h49.2l-38.6 28-1.2.9.4 1.4 14.7 45.3-38.6-28-1-.9-1.2.9-38.6 28 14.7-45.3.4-1.4-1.2-.9-38.6-28h49.2l.4-1.4 14.9-45.3m0-6.5l-16.6 51.2h-53.8l43.5 31.6-16.6 51.2 43.5-31.6 43.5 31.6-16.6-51.2 43.5-31.6h-53.8L251 127.1z" fill="#fff"/><path fill="#E92127" d="M244.1 61.4l-11.1-8h13.8l4.2-13.1 4.2 13.1H269l-11.1 8 4.2 13.1-11.1-8.1-11.1 8.1z"/><path d="M251 41.9l3.7 11.2.2.7h12.5l-9.6 6.9-.6.4.2.7 3.7 11.2-9.6-6.9-.6-.4-.6.4-9.6 6.9 3.7-11.2.2-.7-.6-.4-9.6-6.9h12.5l.2-.7 3.9-11.2m0-3.2l-4.6 14.2h-14.9l12.1 8.8-4.6 14.2 12.1-8.8 12.1 8.8-4.6-14.2 12.1-8.8h-14.9L251 38.7z" fill="#3B3A3C"/><path fill="#E92127" d="M284.5 69.3l-6.1 4.4 2.3-7.1-6.1-4.5h7.5l2.4-7.1 2.3 7.1h7.5l-6.1 4.5 2.4 7.1z"/><path d="M284.5 56.6l1.7 5.4.2.7h6.3l-4.6 3.3-.6.4.2.7 1.7 5.4-4.6-3.3-.6-.4-.6.4-4.6 3.3 1.7-5.4.2-.7-.6-.4-4.6-3.3h6.3l.2-.7 2.3-5.4m0-3.3l-2.7 8.3H273l7.1 5.1-2.7 8.3 7.1-5.1 7.1 5.1-2.7-8.3 7.1-5.1h-8.7l-2.8-8.3z" fill="#3B3A3C"/><path fill="#E92127" d="M213.8 66.6l-6.1-4.5h7.5l2.3-7.1 2.4 7.1h7.5l-6.1 4.5 2.3 7.1-6.1-4.4-6.1 4.4z"/><path d="M217.5 56.6l1.7 5.4.2.7h6.3l-4.6 3.3-.6.4.2.7 1.7 5.4-4.6-3.3-.6-.4-.6.4-4.6 3.3 1.7-5.4.2-.7-.6-.4-4.6-3.3h6.3l.2-.7 2.3-5.4m0-3.3l-2.7 8.3h-8.7l7.1 5.1-2.7 8.3 7.1-5.1 7.1 5.1-2.7-8.3 7.1-5.1h-8.7l-2.9-8.3z" fill="#3B3A3C"/><path d="M109.9 257c2.3 7.6 5.9 15 11 21.1 4.4 5.3 10.6 9.5 17.4 11.2-4.3-6.6-8.6-13.2-13.5-19.2-4.1-5.1-9.2-9.7-14.9-13.1zm20.8-7.8c-2.5 6.2-2.3 12.4-1.2 18.4 1.3 7.1 5.6 14.5 10.3 20.6.5-6.6 0-13.6-1.8-19.8-1.9-6.4-4.4-12.9-7.3-19.2zm-12 2.1c-2.4-7.5-4.8-15.1-8-22.2-2.6-6.1-6.4-11.9-10.9-16.8.1 8 1.7 16 5 23.2 2.9 6.5 7.8 12.2 13.9 15.8zm1.7-.5c2.3-6.1 3.7-12.9 3.6-19.3-.1-6.7-.8-13.6-1.9-20.4-4.1 5.2-5.6 11.1-6.1 17.1-.7 7.2 1.5 15.4 4.4 22.6zm-10.5-41.2c-.3-7.8-.6-15.8-1.6-23.5-.9-6.6-2.8-13.2-5.7-19.2-2.2 7.6-2.9 15.8-1.8 23.6 1 7 4.2 13.9 9.1 19.1zm3.7-22.9c-2.4 7.2-2.7 15.2-1.9 22.8 3.9-5.2 7.1-11.2 8.8-17.3 1.8-6.4 3.1-13.2 4-20-5.2 3.5-9 8.7-10.9 14.5zm5.1-42.4c1.2-6.5 1.6-13.5.7-20.2-4.6 6.6-8 14.3-9.3 22.2-1.2 7-.2 14.5 3 20.9 2-7.6 4.2-15.3 5.6-22.9zm9.8 9.4c3.7-5.7 7.2-11.8 10.3-18-6.1 1.8-11.5 5.8-15.2 10.8-4.5 6.2-7.3 13.7-8.8 21.2 5.3-3.8 10.2-8.7 13.7-14zm14.6-46.8c3.6-6 6.7-12.6 8.5-19.5-7.3 5.2-13.2 11.6-17.7 18.9-3.7 5.9-5.4 13.9-4.4 21.1 4.6-6.7 9.4-13.5 13.6-20.5zM131 128.4c6.5-2.1 12.9-5.4 18.2-9.5 5.8-4.5 11.5-9.5 17-14.6-6.8 0-13.6 2.3-19.2 6.1-6.5 4.6-11.9 11-16 18zm69.4-67.9c-9.6 3-19 7.4-26.8 13.7-6.2 5-11.2 11.8-13.3 19.5 7.5-5.4 15.2-10.7 22.5-16.3 6.4-5 12.4-10.6 17.6-16.9zM185.3 82c-8.4 2.2-16.9 7.3-23.9 13.1 7.6-.2 15.3-1.7 22.4-4.1 8.1-2.8 16.2-6.2 24.2-9.7-7.7-2.1-15.5-1.2-22.7.7zm191.9 188c-4.9 6-9.2 12.7-13.5 19.2 6.8-1.7 13-5.9 17.4-11.2 5.1-6.1 8.7-13.4 11-21.1-5.7 3.5-10.8 8.1-14.9 13.1zm-5.9-20.8c-2.9 6.2-5.4 12.8-7.3 19.2-1.8 6.2-2.4 13.2-1.8 19.8 4.7-6.1 9-13.5 10.3-20.6 1.1-6 1.3-12.2-1.2-18.4zm19.9-20.1c-3.1 7.2-5.6 14.7-8 22.2 6.1-3.6 11-9.4 13.9-15.8 3.3-7.2 4.9-15.3 5-23.2-4.5 4.9-8.2 10.8-10.9 16.8zm-13.1 2.3c-.1 6.4 1.3 13.2 3.6 19.3 2.8-7.2 5.1-15.4 4.4-22.6-.5-6-2-11.9-6.1-17.1-1.2 6.9-1.8 13.8-1.9 20.4zm23.1-40.9c1.1-7.8.4-16-1.8-23.6-3 6-4.9 12.7-5.7 19.2-1 7.7-1.3 15.6-1.6 23.5 4.9-5.2 8.1-12.1 9.1-19.1zm-12.8-3.8c-1.9-5.8-5.7-11.1-10.8-14.5.9 6.8 2.2 13.6 4 20 1.7 6.1 4.8 12.2 8.8 17.3.7-7.6.4-15.5-2-22.8zm.5-19.5c3.2-6.4 4.2-13.9 3-20.9-1.3-7.9-4.7-15.6-9.3-22.2-.9 6.7-.5 13.6.7 20.2 1.4 7.6 3.6 15.3 5.6 22.9zm-15.4-13.5c3.5 5.3 8.4 10.2 13.7 14-1.5-7.6-4.3-15-8.8-21.2-3.7-5-9.1-9-15.2-10.8 3.2 6.2 6.6 12.3 10.3 18zm-1-26.2c1-7.3-.7-15.2-4.4-21.1-4.5-7.2-10.4-13.7-17.7-18.9 1.8 6.8 4.8 13.5 8.5 19.5 4.2 6.9 9 13.7 13.6 20.5zm-17.6-17c-5.5-3.8-12.4-6.1-19.2-6.1 5.5 5.1 11.2 10.1 17 14.6 5.3 4.1 11.7 7.4 18.2 9.5-4-7.1-9.4-13.5-16-18zm-35.6-33.1c7.3 5.6 15 10.9 22.5 16.3-2.1-7.7-7.1-14.5-13.3-19.5-7.8-6.3-17.2-10.8-26.8-13.7 5.1 6.3 11.1 11.9 17.6 16.9zm-2.6 4.6c-7.2-1.9-15-2.7-22.7-.7 8 3.5 16.1 6.8 24.2 9.7 7.1 2.5 14.8 3.9 22.4 4.1-7-5.8-15.5-11-23.9-13.1z" stroke-miterlimit="2.414" stroke-width=".75" stroke="#3B3A3C" fill="#ED4723"/><path d="M246.94 339.73c-2.334-3.514-3.793-6.5-4.99-10.063-1.526-4.515-1.736-7.14-.89-10.364l.43-1.66 1.81 4.61c1.003 2.542 1.885 4.66 1.997 4.706.098.05-.25-1.53-.768-3.53-1.47-5.545-1.81-8.305-1.22-10.006.77-2.246 2.83-4.727 5.844-6.992 4.36-3.28 6.268-4.264 12.033-6.217 5.046-1.7 5.354-1.843 6.91-3.3 1.045-.977 2.37-1.837 3.71-2.403 2.17-.897 1.763-1.293-.564-.575-.635.2-2.066.322-3.185.28-1.118-.045-2.946.12-4.07.34l-2.05.436.92-1.803c.514-.987 1.832-2.71 2.906-3.826 1.512-1.55 1.737-1.88.93-1.425-1.843 1.02-3.814 3.16-5.053 5.454-.88 1.653-1.53 2.407-2.437 2.89l-1.232.637-.132-1.14c-.08-.634-.03-2.08.11-3.24.145-1.146.25-2.265.28-2.465.017-.215-.17-.01-.43.446-.558.956-.833 3.76-.575 5.608.29 2.045-1.716 2.914-2.38 1.034-.106-.314-.4-.603-.642-.664-.334-.08-.255.313.246 1.37.38.818.583 1.61.43 1.774-.13.167-.83.026-1.516-.307-1.406-.66-1.49-.482-.304.667.783.75.774.798-.053 2.013-1.052 1.546-3.96 3.88-4.15 3.322-.08-.21.083-1.974.342-3.92.56-4.108 2.53-8.827 4.74-11.424 3.44-4.022 10.337-7.614 22.64-11.752 15.01-5.045 25.69-7.195 29.95-6.032 1.69.475 1.913.447 3.07-.302.695-.44 1.47-.977 1.703-1.17.73-.607 10.647 6.06 16.996 11.43 3.067 2.58 8.642 8.12 11.42 11.3 2.787 3.19 7.936 10.182 8.456 11.45.12.304-.265 1.97-.864 3.743-1.822 5.427-3.234 7.737-8.016 13.113-8.85 9.977-17.517 18.86-25.355 25.924-3.9 3.52-10.6 9.04-11.226 9.255-.77.51-2.356 2.19-2.785 2.214l-3.156 2.053c-2.81 1.845-3.57 2.19-7.43 3.362-4.58 1.405-7.3 1.68-8.815.95-.475-.23-1.92-1.126-3.218-2.02-2.743-1.85-3.08-1.565-.733.63.897.835 1.59 1.606 1.55 1.694-.057.1-.78.074-1.614-.06-5.954-.884-18.956-11.68-26.95-22.37-.974-1.29-1.853-2.52-2.625-3.683z" fill="#E92127"/><path d="M252.982 303.05l.696-1.17c1.875-3.102 5.776-5.734 9.945-6.748 2.23-.532 5.595-.69 5.753-.27.046.13-.622.857-1.49 1.615-1.41 1.22-2.175 1.586-7.184 3.34-3.08 1.077-6.07 2.256-6.66 2.61l-1.06.622z"/><path d="M312.47 270.19c-.05-.168.31-.447.817-.624.728-.24 1.455.003 3.41 1.125 10.903 6.3 20.882 15.49 30.073 27.688 1.75 2.33 3.242 4.364 3.307 4.523.065.158-.09.564-.318.917-.78 1.14-1.15.922-2.818-1.682-6.64-10.36-19.718-22.697-31.938-30.157-1.355-.795-2.486-1.617-2.537-1.785zm2.496-1.194c-.306-.462.207-.783 1.457-1.21 1.003-.343 1.58-.202 3.97.934 8.73 4.15 15.943 10.758 26.102 23.925 3.67 4.765 4.33 5.456 5.97 6.284 1.012.514 2.14.94 2.493.922 1.058-.017.922.477-.445 1.608-1.19.973-1.358 1.024-2.272.803-.54-.145-1.15-.1-1.38.073-.293.254-.875-.348-2.25-2.26-9.165-12.798-20.894-23.833-31.45-29.575-1.24-.685-1.95-1.143-2.19-1.51zm-2.476 1.646c-.03-.042-.043-.093-.052-.168-.213-1.05 1.32-2.935 2.952-3.636 3.904-1.685 12.387 1.638 22.976 9.012 6.188 4.303 7.817 5.662 11.45 9.523 2.23 2.354 9.636 11.74 10.063 12.748.02.07-.24.1-.606.1-1.725.017-4.822 4.07-5.4 3.63-.358-.268-5.04-5.673-7.198-8.255-10.603-12.71-14.894-19.807-25.396-22.738-5.35-1.49-5.633-1.524-7.163-.67-1.1.652-1.487.768-1.63.46zm59.016-1.13c.67 1.01 1.288 2.03 1.897 3.04 1.752 2.973 3.46 7.55 3.583 9.526.058 1.03-.297 1.71-1.796 3.614-4.57 5.82-9.95 10.08-15.483 12.264l-3.373 1.332-1.046-1.605c-3.747-5.823-10.414-14.127-14.407-17.89-9.062-8.607-14.662-12.877-19.96-15.29l-2.84-1.3 4.07-3.957c2.247-2.178 6.52-6.227 9.49-9.01 2.976-2.782 5.99-5.835 6.74-6.775.724-.943 1.42-1.75 1.537-1.785.648-.21 4.663 1.522 7.113 3.083 8.846 5.604 18.093 14.998 24.48 24.76zm-27.602-27.79c-.107-.19-.032-.382.103-.634.347-.694.496-.712 2.565-.392 8.668 1.385 20.347 11.525 29.82 25.875 2.98 4.52 5.91 10.727 5.63 11.88-.137.557-2.53 2.39-3.61 2.74-.572.2-.665.06-.905-1.333-.8-4.513-7.197-14.69-13.683-21.782-5.356-5.845-13.15-12.412-17.68-14.89-1.477-.795-2.087-1.136-2.24-1.458zm1.224-1.984c-.037-.116.117-.28.35-.535 1.318-1.42 3.998-1 8.427 1.263 1.844.954 4.364 2.408 5.598 3.263 3.506 2.39 9.525 7.35 11.89 9.753 4.03 4.123 8.126 10.077 10.737 15.648 1.175 2.53 2.965 8.2 2.908 9.207-.024.36-.585 1.277-1.234 2.03-.95 1.095-1.63 1.527-3.35 2.126-1.946.686-2.174.677-2.374.103-.185-.524.062-.79 1.182-1.35.77-.39 1.9-1.12 2.492-1.656l1.1-.953-1.322-3.296c-3.77-9.38-13.715-22.163-22.705-29.166-3.082-2.39-8.876-5.282-11.723-5.832-1.398-.28-1.934-.39-1.976-.604z" fill="#E92127"/><path d="M326.448 260.218s2.68-.307 4.014-.245c1.19.058 3.547.57 3.547.57 12.152 11.255 20.09 21.44 31.59 15.09-.808 3.523-10 10.92-10.418 10.41-3.954-7.865-16.095-20.22-28.738-25.825z" fill="#ED4723"/><path d="M375.254 262.87c1.173 1.73 2.256 3.56 3.276 5.52.74 1.397 2.01 4.512 2.864 6.97.39 1.093.675 1.935.896 2.587.206.657.325 1.113.407 1.51.127.792-.01 1.228-.276 1.904-.86 2.21-2.61 3.588-5.65 4.497-2.53.753-2.445.69-4.35 3.02-4.7 5.745-10.234 10.126-15.87 12.537-1.934.835-3.024 1.49-3.832 2.348-.65.7-1.405 1.24-2.11 1.57-.704.327-1.388.453-1.92.19-.043-.02-.08-.026-.16 0-.095.034-.217.093-.37.216-.28.22-.624.62-.987 1.115-.7 1.02-1.425 2.49-1.91 4.037-1.874 5.815-3.347 8.212-8.93 14.49-17.856 20.055-33.32 34.156-44.593 40.645-2.107 1.21-4.89 2.21-7.53 2.788-2.626.572-5.1.756-6.62.298-.554-.166-1.536-.134-2.082.034-1.622.55-3.935-.1-6.694-1.54-2.76-1.44-5.93-3.68-9.23-6.442-6.572-5.517-13.507-13.093-17.982-20.37-2.047-3.312-4.68-9.918-5.1-12.826-.432-2.993-.014-5.99 1.212-8.854.584-1.352 1.47-3.444 1.94-4.615.613-1.484 1.54-2.827 2.892-4.173.966-.966 1.442-1.447 1.683-1.99.246-.527.296-1.165.39-2.51.524-7.643 3.476-13.416 8.97-17.445 6.928-5.083 23.907-11.22 39.825-14.43 5.21-1.06 8.48-1.247 10.215-.47.548.256.766.324 1.318.12.55-.206 1.455-.78 3.074-1.86 1.56-1.045 2.38-1.607 2.733-1.976.186-.187.24-.293.244-.384.02-.094-.012-.19-.077-.38-.093-.27-.036-.574.068-.893.1-.335.262-.692.462-1.043.184-.347.39-.682.616-.954.226-.273.454-.492.724-.584-.032.01.032-.01.084-.065.07-.06.158-.122.27-.213.204-.176.5-.4.83-.69.663-.6 1.51-1.4 2.385-2.264 1.774-1.72 6.248-6.04 9.945-9.568 1.85-1.764 3.68-3.574 5.133-5.043 1.463-1.49 2.57-2.665 2.915-3.118l1.38-1.782c.064-.074.175-.112.27-.09l1.644.345 1.488.31 1.16-1.546c.76-1.003 1.646-1.836 2.346-2.074 1.78-.605 4.264-.082 7.416 1.42 3.15 1.5 6.972 3.98 11.367 7.416 6.03 4.708 10.33 9.118 13.832 14.313zm-.96 1.194c-2.035-3.07-4.33-5.96-6.577-8.247-2.334-2.382-8.368-7.302-11.85-9.666-1.22-.822-3.734-2.274-5.577-3.21-2.21-1.13-3.955-1.78-5.3-1.98-1.345-.2-2.225.03-2.81.657-.127.15-.185.24-.222.288.064.033.186.08.442.153.287.062.723.144 1.27.242 2.956.556 8.712 3.407 11.837 5.82 9.05 7.017 19.022 19.77 22.845 29.2l1.33 3.29c.033.095.002.21-.083.276l-1.09.973c-.63.55-1.75 1.32-2.56 1.72-.56.276-.86.485-.99.634-.125.15-.13.187-.054.41.042.126.085.2.106.21.022.012.032.043.17.032.245-.012.807-.185 1.776-.515 1.695-.59 2.31-.98 3.222-2.05.316-.373.606-.773.822-1.13.215-.357.33-.697.33-.75.015-.165-.068-.722-.252-1.422-.17-.707-.43-1.576-.726-2.504-.59-1.84-1.34-3.89-1.92-5.13-1.14-2.414-2.556-4.912-4.146-7.298zm-1.587 4.777c-9.48-14.28-21.176-24.334-29.674-25.65-1.032-.165-1.568-.23-1.833-.176-.133.028-.175.06-.228.114-.053.053-.12.165-.205.336-.084.17-.12.27-.12.323 0 .053.032.096.14.2.218.228.836.586 2.013 1.232 4.602 2.48 12.392 9.02 17.767 14.874 3.26 3.54 6.5 7.864 9.025 11.85 2.53 4 4.355 7.653 4.777 9.992.12.684.22 1.077.283 1.16.032.044.01.033.048.038.017-.005.11-.038.245-.065.46-.157 1.338-.704 2.073-1.255.365-.282.693-.57.946-.816.115-.13.242-.225.3-.316.08-.08.1-.177.1-.177.01-.074.015-.27-.04-.536s-.152-.604-.303-.996c-.862-2.437-3.08-6.774-5.32-10.13zm-4.82 2.937c-7.817-10.273-14.74-18.438-24.476-24.602-1.21-.756-2.803-1.58-4.192-2.173-.687-.3-1.33-.524-1.81-.68-.24-.08-.45-.13-.605-.167-.15-.02-.25-.004-.255-.02-.027.027-.053.054-.09.102-.095.085-.206.23-.348.384-.28.325-.634.747-1.003 1.227-.38.5-1.32 1.494-2.534 2.722-1.213 1.23-2.72 2.696-4.197 4.085-2.958 2.78-7.215 6.85-9.44 9.024l-3.78 3.695 2.497 1.138c5.343 2.425 10.964 6.705 20.045 15.27 4.02 3.798 10.71 12.06 14.48 17.89l.917 1.445 3.2-1.28c5.468-2.178 10.786-6.413 15.326-12.21.744-.945 1.197-1.596 1.43-2.1.255-.513.31-.87.29-1.34-.045-.925-.51-2.558-1.16-4.306-.66-1.744-1.51-3.62-2.38-5.08-.62-.994-1.25-2.005-1.912-3.02zm-4.114 4.128c.595.916 1.152 1.774 1.56 2.45.203.34.358.64.487.864.06.12.108.21.135.29.043.074.06.122.075.223.022.117-.136.384-.136.384-.058.09-.153.177-.258.284-.222.236-.544.54-.956.893-.803.715-1.924 1.645-3.16 2.597-2.454 1.914-5.87 4.6-7.56 5.99-1.032.83-1.82 1.433-2.386 1.803-.29.19-.513.318-.714.404-.096.032-.175.06-.28.06-.107 0-.246-.04-.32-.158-.097-.13-.274-.44-.537-.9s-.595-1.02-.922-1.62c-4.69-8.588-14.762-18.57-23.27-23.61-.19-.308 2.32.825 2.64 1.02 9.777 5.97 17.35 11.876 23.845 23.06 0 0 .51-.17 1.064-.628 5.085-4.087 7.315-6.866 9.14-10.163 1.01-2.296-3.835-10.35-5.397-12.497l3.637 4.495c1.15 1.56 2.247 3.12 3.32 4.76zM350.71 299.21c-.773-1.07-1.768-2.434-2.827-3.83-2.11-2.813-4.42-5.805-5.435-7.02-3.396-3.99-4.848-5.448-10.27-10.24-4.638-4.1-8.697-7.226-11.937-9.194-1.62-.973-3.032-1.682-4.192-2.068-1.16-.387-2.057-.472-2.662-.267-.508.177-.973.58-1.268 1.07-.295.49-.414 1.03-.284 1.41.033.098.07.156.09.167.007.015-.01.02.04.005.075.01.34-.1.78-.32.523-.282.98-.402 1.766-.173.77.234 1.915.785 4.09 1.856 8.55 4.242 15.367 10.528 25.5 23.545.383.507.757.983 1.126 1.443-6.472-7.305-18.84-19.76-28.313-24.36-1.186-.573-1.926-.87-2.447-.996-.537-.12-.856-.064-1.333.098-.54.185-.948.34-1.165.486-.117.076-.185.135-.19.17-.02.044-.005.04.005.07.022.064.182.276.54.545.368.246.916.556 1.62.956 10.6 5.73 22.376 16.75 31.576 29.533.694.952 1.17 1.57 1.51 1.898.16.16.305.27.36.285.02.01.01.016.01.016l.014-.004c.196-.153.445-.202.705-.22.275-.023.605.007.897.085.447.116.65.136.887.055.24-.08.567-.318 1.143-.815.333-.273.586-.52.766-.72.17-.183.26-.338.275-.396-.207-1.546-.41-1.725-1.378-3.063zm-4.41 5.61c-.01-.03-.03-.04-.048-.037-.17-.242-.417-.602-.712-.998-.593-.81-1.406-1.9-2.294-3.05-9.197-12.147-19.162-21.282-30.04-27.52-.97-.556-1.636-.898-2.115-1.054-.49-.15-.77-.14-1.09-.033-.222.077-.43.2-.54.29-.026.028-.042.033-.052.055.027.026.053.053.1.09.124.1.316.247.545.4.464.32 1.077.716 1.727 1.116 12.26 7.435 25.376 19.74 32.073 30.11.83 1.295 1.37 1.998 1.66 2.167.15.073.17.084.27.014s.26-.23.45-.507c.104-.16.19-.33.23-.467.036-.102.04-.192.05-.213l-.004-.018c-.077-.116-.16-.265-.206-.34zm-2.79.56c-.6-.88-1.375-1.965-2.23-3.128-1.703-2.295-3.698-4.827-5.088-6.413-2.758-3.16-8.35-8.66-11.4-11.22-3.175-2.667-7.244-5.666-10.607-7.89-1.674-1.12-3.198-2.056-4.31-2.67-.566-.305-1.013-.526-1.343-.66-.16-.054-.314-.09-.394-.117-.038-.005-.06-.015-.075-.01-.29.24-.994.728-1.677 1.173-.582.374-.984.6-1.46.655-.485.04-.984-.074-1.825-.302-2.03-.553-5.743-.32-10.803.707-5.06 1.027-11.465 2.848-18.954 5.39-12.273 4.17-19.103 7.766-22.474 11.73-2.16 2.525-4.118 7.25-4.658 11.3-.132.968-.23 1.887-.29 2.6-.022.344-.05.636-.062.854-.005.09-.015.165-.01.234.064-.022.112-.038.218-.09.286-.15.704-.436 1.137-.778.863-.7 1.834-1.65 2.33-2.387.41-.617.574-.92.563-1.06 0-.05 0-.105-.07-.205-.07-.1-.21-.25-.396-.434-.31-.283-.535-.526-.685-.705-.07-.1-.144-.164-.176-.26-.05-.09-.1-.18-.014-.35.026-.08.11-.144.174-.165.062-.02.115-.02.152-.016.09.005.187.025.304.056.218.07.5.17.857.33.336.152.66.273.906.314.115.03.215.014.284.01-.005-.017.006.015.005-.04-.01-.083-.034-.2-.066-.35-.08-.29-.226-.666-.4-1.07-.25-.534-.39-.894-.435-1.18-.46-1.777.51-4.29.51-4.29s.06 3.155.834 4.542c.14.413.365.656.562.767.197.11.41.11.626.018.42-.174.804-.77.672-1.68-.15-.96-.14-2.132-.024-3.2.118-1.07.31-2.02.62-2.57.13-.24.25-.405.35-.527l.08-.08c.044-.033.1-.07.214-.055.11.016.208.142.23.206.02.065.02.118.016.155-.016.217-.14 1.306-.263 2.464-.132 1.126-.192 2.618-.126 3.18l.125.775.9-.484c.857-.45 1.453-1.15 2.32-2.774 1.24-2.353 3.214-4.53 5.125-5.59 2.086-.85 4.2-2.1 6.34-2.95-3.17 1.894-4.72 2.917-6.957 4.793-1.068 1.09-2.37 2.844-2.853 3.77l-.673 1.31 1.528-.305c1.156-.25 2.982-.41 4.13-.374 1.093.038 2.52-.092 3.077-.28.594-.184 1.07-.293 1.42-.36.17-.02.325-.038.447-.044.125.01.24-.012.36.126.073.063 10.276-3.26 10.255-3.165-.005.09-10.218 3.596-10.254 3.644-.073.097-.174.166-.306.247-.26.177-.634.376-1.18.597-1.303.55-2.61 1.4-3.63 2.368-.776.743-1.272 1.16-2.2 1.617-.93.44-2.26.91-4.79 1.77-5.755 1.954-7.577 2.91-11.907 6.19-2.978 2.252-5.024 4.74-5.745 6.9-.544 1.583-.22 4.31 1.27 9.852.267.99.48 1.877.63 2.534.07.313.127.578.154.764.01.084.02.17.01.243-.004.035.017.046-.01.126-.004.036-.04.084-.11.143-.074.043-.212.054-.275.023-.127-.064-.122-.1-.133-.133-.01-.03-.036-.06-.047-.09-.042-.073-.096-.18-.155-.3-.124-.26-.274-.6-.452-1.017-.36-.852-.845-2.018-1.346-3.284l-1.525-3.863-.234.877c-.836 3.176-.594 5.718.93 10.202 1.603 4.72 3.652 8.406 7.627 13.69 3.987 5.312 9.242 10.656 14.235 14.76 4.984 4.124 9.737 6.996 12.59 7.41.41.056.81.08 1.08.095.016-.004.016-.004.053 0-.06-.07-.09-.11-.17-.19-.28-.295-.68-.69-1.123-1.11-6.37-6.01-10.203-10.72-13.708-18.326 3.79 5.736 13.272 22.006 26.553 18.293 3.853-1.185 4.542-1.508 7.34-3.345l2.958-1.945c1.09-1.08 1.857-1.43 2.993-2.364 0 0-.005-.016.016-.006-.017.006.195-.102.454-.28.243-.17.566-.42.947-.71.773-.6 1.787-1.423 2.89-2.347 2.227-1.856 4.87-4.1 6.808-5.86 7.81-7.084 16.46-15.98 25.255-25.954 4.75-5.39 6.13-7.65 7.914-13.045.286-.878.526-1.74.67-2.41.084-.33.13-.61.16-.834.015-.217-.007-.387.01-.34-.103-.25-.516-.94-1.116-1.82zm-77.743-7.985c-.08-.026-.176-.047-.32-.05-.35-.042-.85-.05-1.422-.015-1.12.044-2.51.232-3.593.493-4.11 1.007-7.95 3.64-9.765 6.652l-.168.287.19-.12c.35-.208 1.22-.574 2.423-1.053 1.202-.48 2.734-1.04 4.27-1.58 2.502-.884 3.933-1.423 4.897-1.874.965-.453 1.478-.82 2.175-1.43.423-.376.777-.744 1.035-1.027.123-.11.218-.197.276-.287zm-9.27.63c-.675-2.72-.22-5.707 1.22-8.096.824-1.38 1.96-2.557 3.298-3.426-1.27 1.065-2.162 2.546-2.524 4.158-.41 1.87-.08 3.888.93 5.52l-2.918 1.838m4.087-2.47c.717-3.323 2.73-6.336 5.504-8.298 2.79-1.972 6.31-2.838 9.698-2.385-3.137.107-6.22 1.51-8.36 3.818-1.443 1.564-2.462 3.492-2.927 5.556l-3.913 1.31m49.335-24.662c3.243 3.88 6.285 7.912 9.09 12.103 2.91 4.325 5.578 8.828 8.004 13.45-2.72-4.55-5.822-8.884-9.265-12.912-3.384-3.945-7.102-7.63-11.09-10.954l3.264-1.682m-26.12 95.518c-3.73-2.486-6.955-5.73-9.44-9.47-1.43-2.155-2.625-4.47-3.53-6.895 1.385 2.268 3.004 4.4 4.805 6.353 3.495 3.772 7.708 6.865 12.357 9.063l-4.192.95"/><path d="M341.92 312.962c-5.815 3.867-12.357 14.666-22.907 23.905-10.99 9.612-15.86 15.842-23.125 18.168-7.274 2.312-12.146 1.004-14.662-2.78-2.516-3.783-2.43-2.346-11.622-13.007-9.2-10.676-10.93-9.324-15.747-21.28 10.868 6.68 17.757 14.73 25.31 21.53 18.023 16.187 40.227-17.922 47.99-22.66 4.994-7.868-15.2-40.177-11.68-34.796 4.454 6.03 10.04 20.325 26.443 30.92z" fill="#ED4723"/><path d="M348.383 302.38c-2.992-4.075-6.2-7.985-9.598-11.728-3.52-3.864-7.258-7.54-11.175-11 3.762 3.743 7.23 7.803 10.348 12.096 3.374 4.648 6.342 9.566 8.875 14.713l1.55-4.08m-31.898-41.885c5.654 3.092 11.017 6.72 15.98 10.838 7.124 5.915 13.408 12.81 18.632 20.454-6.38-7.802-14.08-14.546-22.648-19.863-4.678-2.894-9.628-5.383-14.746-7.396l.544-2.22 2.233-1.81m-76.53 53.526c.502 5.95 2.535 11.773 5.86 16.74 2.76 4.123 6.4 7.647 10.6 10.29-4.69-3.773-8.38-8.776-10.62-14.36-2.35-5.876-3.096-12.374-2.11-18.61l-3.73 5.94"/><path d="M374.813 279.425c.084.248.105 2.073-4.84 6.977-4.882 4.845-14.277 8.83-14.277 8.83s11.77-8.193 14.825-13.72c3.04-5.52 1.76-8.666 1.76-8.666s.6.57 1.7 3.316c1.094 2.77.837 3.263.837 3.263z" fill="#ED4723"/><path d="M383.635 278.65l-4.53 2.124-1.4-.1c-1.12-7.763-3.89-15.3-8.064-21.94-5.19-8.27-12.56-15.152-21.16-19.76 7.778 3.823 14.825 9.1 20.68 15.473 6.4 6.98 11.36 15.262 14.48 24.204" stroke="#000" stroke-width=".168"/><path d="M353.902 296.606l.264 1.28s-1.13 1.216-1.803 1.482c-.318.13-.966-.085-.966-.085s-1.473-6.074-3.383-8.947c-1.91-2.873-4.36-5.368-4.36-5.368s3.783 3.164 5.974 5.85c2.177 2.696 4.274 5.788 4.274 5.788zm-47.674-21.266l-4.117-3.67s-12.59 1.242-20.622 4.48c-8.032 3.24-10.587 5.688-10.587 5.688s13.72-5.87 19.437-6.116c5.714-.222 15.894-.383 15.894-.383z" fill="#ED4723"/><path d="M255.587 339.942c2.334-3.514 3.793-6.5 4.99-10.063 1.526-4.52 1.736-7.14.892-10.37l-.437-1.66-1.81 4.61c-1.003 2.543-1.9 4.65-1.997 4.707-.1.056.25-1.53.767-3.525 1.464-5.545 1.804-8.305 1.22-10.006-.77-2.247-2.834-4.728-5.85-6.993-4.358-3.28-6.267-4.264-12.032-6.217-5.045-1.696-5.353-1.84-6.91-3.297-1.044-.978-2.37-1.838-3.71-2.404-2.167-.898-1.762-1.294.565-.576.634.2 2.065.324 3.184.28 1.12-.043 2.946.12 4.07.343l2.052.435-.922-1.8c-.512-.99-1.83-2.71-2.903-3.826-1.514-1.55-1.74-1.88-.93-1.425 1.842 1.02 3.812 3.16 5.05 5.454.88 1.655 1.53 2.41 2.44 2.89l1.23.64.144-1.157c.08-.634.03-2.08-.106-3.24-.147-1.146-.265-2.274-.28-2.465-.018-.216.17-.01.43.445.543.946.846 3.77.574 5.607-.29 2.05 1.716 2.917 2.38 1.037.106-.313.4-.602.642-.663.325-.066.256.312-.246 1.37-.38.817-.585 1.61-.43 1.773.13.168.83.027 1.514-.306 1.41-.656 1.493-.48.306.67-.782.75-.772.798.055 2.013 1.05 1.547 3.96 3.882 4.15 3.323.08-.21-.075-1.986-.344-3.92-.56-4.106-2.522-8.84-4.74-11.422-3.443-4.02-10.34-7.613-22.643-11.75-15.01-5.048-25.687-7.198-29.95-6.035-1.687.473-1.91.445-3.07-.304-.685-.455-1.47-.976-1.702-1.17-.726-.606-10.644 6.062-16.994 11.43-3.067 2.582-8.657 8.11-11.42 11.3-2.788 3.192-7.946 10.197-8.456 11.452-.12.302.265 1.97.865 3.74 1.822 5.428 3.233 7.738 8.016 13.114 8.85 9.976 17.53 18.846 25.358 25.923 3.898 3.518 10.6 9.04 11.226 9.254.77.51 2.36 2.19 2.788 2.212l3.13 2.06c2.81 1.846 3.57 2.19 7.433 3.363 4.576 1.405 7.298 1.68 8.812.95.475-.23 1.92-1.127 3.218-2.02 2.743-1.85 3.08-1.566.733.63-.898.835-1.592 1.605-1.55 1.694.043.087.78.072 1.613-.06 5.956-.886 18.958-11.68 26.95-22.373 1.004-1.27 1.87-2.51 2.64-3.673z" fill="#E92127"/><path d="M249.56 303.27l-.697-1.17c-1.874-3.1-5.776-5.732-9.945-6.746-2.23-.533-5.595-.69-5.753-.27-.046.13.622.856 1.49 1.615 1.41 1.214 2.175 1.58 7.184 3.334 3.074 1.077 6.064 2.256 6.66 2.61l1.06.622z"/><path d="M190.07 270.41c.05-.167-.308-.446-.816-.622-.728-.24-1.455.002-3.41 1.124-10.903 6.297-20.882 15.488-30.073 27.683-1.744 2.33-3.24 4.364-3.302 4.523-.065.16.09.564.318.918.776 1.14 1.144.92 2.813-1.683 6.64-10.36 19.717-22.697 31.937-30.157 1.34-.804 2.486-1.617 2.537-1.785zm-2.495-1.193c.306-.462-.216-.77-1.457-1.21-1.003-.343-1.58-.202-3.97.935-8.73 4.15-15.943 10.757-26.102 23.924-3.67 4.765-4.33 5.456-5.97 6.284-1.012.52-2.13.927-2.493.927-1.058-.017-.922.477.445 1.608 1.19.972 1.358 1.023 2.272.803.54-.146 1.156-.1 1.384.072.294.256.876-.347 2.248-2.26 9.167-12.797 20.896-23.832 31.45-29.574 1.243-.687 1.95-1.145 2.193-1.51zm2.465 1.637c.026-.042.04-.093.05-.168.212-1.05-1.32-2.935-2.967-3.645-3.904-1.68-12.387 1.64-22.975 9.016-6.19 4.304-7.818 5.663-11.452 9.524-2.23 2.352-9.635 11.74-10.062 12.746-.014.052.238.098.6.097 1.726.017 4.824 4.07 5.4 3.628.36-.264 5.04-5.67 7.2-8.25 10.6-12.71 14.892-19.81 25.395-22.74 5.344-1.49 5.65-1.53 7.16-.67 1.13.67 1.515.785 1.645.468zm-59.02-1.13c-.668 1.01-1.286 2.03-1.895 3.04-1.753 2.97-3.475 7.54-3.583 9.524-.06 1.03.296 1.71 1.786 3.628 4.57 5.82 9.95 10.08 15.483 12.263l3.377 1.33 1.047-1.608c3.748-5.824 10.414-14.128 14.408-17.892 9.067-8.605 14.668-12.875 19.964-15.29l2.843-1.3-4.073-3.955c-2.244-2.178-6.516-6.227-9.49-9.01-2.974-2.782-6.005-5.844-6.74-6.775-.722-.945-1.42-1.75-1.55-1.796-.647-.21-4.663 1.522-7.112 3.083-8.81 5.608-18.057 15.002-24.456 24.755zm27.617-27.78c.107-.192.032-.383-.103-.634-.346-.694-.496-.713-2.55-.383-8.67 1.385-20.362 11.515-29.83 25.888-2.98 4.518-5.91 10.722-5.63 11.878.137.554 2.53 2.387 3.594 2.73.574.2.667.06.907-1.334.8-4.52 7.197-14.696 13.683-21.788 5.342-5.854 13.15-12.412 17.68-14.89 1.486-.81 2.082-1.16 2.25-1.472zm-1.224-1.984c.037-.117-.117-.28-.35-.536-1.318-1.42-3.997-1-8.427 1.264-1.844.954-4.364 2.407-5.598 3.263-3.506 2.397-9.516 7.34-11.89 9.76-4.03 4.125-8.126 10.08-10.737 15.65-1.17 2.53-2.96 8.2-2.902 9.207.023.36.584 1.276 1.234 2.03.948 1.094 1.63 1.526 3.35 2.125 1.945.687 2.173.677 2.373.103.187-.52-.06-.786-1.195-1.358-.77-.39-1.89-1.134-2.492-1.655l-1.1-.956 1.322-3.298c3.77-9.38 13.715-22.165 22.705-29.168 3.082-2.39 8.876-5.283 11.723-5.833 1.412-.273 1.934-.39 1.99-.595z" fill="#E92127"/><path d="M176.093 260.44s-2.68-.308-4.014-.245c-1.19.058-3.55.57-3.55.57-12.16 11.254-20.1 21.453-31.596 15.09.807 3.523 10.008 10.905 10.417 10.41 3.955-7.865 16.083-20.23 28.74-25.825z" fill="#ED4723"/><path d="M127.668 261.914c-1.172 1.73-2.24 3.566-3.275 5.52-.74 1.398-2.012 4.513-2.865 6.972-.388 1.092-.674 1.934-.88 2.592-.205.657-.33 1.13-.407 1.51-.14.786.01 1.227.28 1.903.865 2.21 2.615 3.59 5.658 4.498 2.528.752 2.444.688 4.348 3.02 4.7 5.745 10.234 10.125 15.87 12.536 1.934.835 3.024 1.49 3.83 2.35.65.7 1.407 1.24 2.11 1.566.706.327 1.39.453 1.922.19.043-.02.08-.025.176.007.096.032.218.092.37.215.28.22.624.62.97 1.11.7 1.018 1.427 2.487 1.928 4.04 1.874 5.815 3.348 8.213 8.93 14.49 17.84 20.05 33.32 34.157 44.594 40.646 2.107 1.212 4.89 2.21 7.515 2.783 2.625.57 5.1.757 6.62.298.553-.167 1.536-.135 2.08.033 1.62.55 3.937-.1 6.696-1.54 2.76-1.44 5.93-3.677 9.23-6.44 6.572-5.52 13.51-13.094 17.983-20.37 2.046-3.313 4.68-9.92 5.1-12.83.43-2.99.013-5.99-1.214-8.852-.588-1.352-1.473-3.444-1.945-4.615-.613-1.483-1.54-2.826-2.89-4.172-.97-.966-1.443-1.446-1.684-1.99-.245-.527-.294-1.164-.39-2.51-.523-7.642-3.474-13.415-8.97-17.445-6.926-5.083-23.906-11.222-39.823-14.43-5.21-1.058-8.473-1.262-10.214-.47-.55.257-.768.324-1.32.12-.566-.21-1.455-.78-3.06-1.855-1.56-1.046-2.38-1.61-2.732-1.977-.168-.18-.236-.293-.257-.39-.004-.09.013-.19.078-.38.09-.27.035-.574-.07-.893-.1-.335-.26-.692-.46-1.044-.185-.346-.39-.682-.617-.954-.226-.272-.453-.49-.723-.583.03.01-.032-.01-.085-.067-.072-.043-.15-.123-.262-.214-.205-.177-.5-.4-.83-.69-.665-.6-1.51-1.4-2.386-2.266-1.77-1.735-6.247-6.04-9.944-9.566-1.85-1.765-3.68-3.576-5.134-5.044-1.463-1.49-2.555-2.66-2.914-3.118l-1.38-1.78c-.063-.077-.175-.115-.255-.088l-1.642.347-1.472.315-1.16-1.547c-.76-1.002-1.645-1.836-2.345-2.073-1.78-.605-4.263-.083-7.415 1.418-3.152 1.5-6.974 3.98-11.37 7.42-6.08 4.69-10.373 9.084-13.88 14.295zm.96 1.195c2.035-3.07 4.33-5.96 6.578-8.25 2.334-2.38 8.368-7.3 11.85-9.668 1.22-.827 3.734-2.28 5.577-3.213 2.21-1.13 3.976-1.79 5.3-1.978 1.344-.2 2.224.03 2.81.653.127.15.185.24.222.288-.064.032-.187.08-.442.152-.287.062-.723.145-1.27.242-2.956.556-8.712 3.407-11.838 5.82-9.045 7-19.02 19.77-22.844 29.2l-1.342 3.285c-.032.096 0 .213.084.277l1.088.97c.63.55 1.75 1.323 2.555 1.72.563.28.864.488.99.638.127.15.132.185.057.41-.045.125-.088.2-.11.21-.027.026-.05.04-.17.03-.245-.01-.807-.184-1.777-.514-1.696-.595-2.293-.975-3.222-2.053-.313-.372-.603-.772-.82-1.13-.215-.356-.33-.697-.345-.755-.015-.165.068-.72.252-1.42.17-.707.43-1.577.726-2.504.59-1.84 1.34-3.89 1.92-5.13 1.156-2.41 2.587-4.9 4.178-7.287zm1.57 4.77c9.465-14.29 21.194-24.337 29.698-25.67 1.03-.163 1.562-.213 1.833-.175.13.027.18.043.24.118.05.053.12.165.203.335.084.17.12.272.12.325 0 .053-.032.095-.14.2-.218.228-.836.586-2.013 1.232-4.585 2.486-12.39 9.02-17.766 14.874-3.26 3.54-6.5 7.865-9.025 11.85-2.53 4-4.356 7.653-4.778 9.993-.126.684-.24 1.07-.288 1.16-.032.043-.01.033-.032.043-.016-.005-.096-.032-.244-.065-.46-.155-1.34-.702-2.075-1.253-.364-.285-.692-.57-.945-.82-.114-.127-.24-.223-.3-.314-.08-.08-.1-.176-.1-.176-.01-.073-.013-.27.04-.535.057-.265.154-.604.29-1.002.84-2.426 3.06-6.763 5.28-10.122zm4.838 2.934c7.817-10.273 14.74-18.438 24.476-24.6 1.215-.76 2.807-1.584 4.197-2.176.68-.3 1.33-.524 1.804-.68.255-.073.452-.13.622-.16.15-.02.25-.005.254-.02.027.026.054.052.09.1.096.086.207.23.35.385.28.325.632.747 1 1.227.38.5 1.32 1.494 2.535 2.722 1.213 1.228 2.718 2.697 4.197 4.086 2.958 2.78 7.215 6.85 9.438 9.024l3.783 3.696-2.497 1.137c-5.34 2.408-10.967 6.704-20.048 15.27-4.02 3.796-10.71 12.058-14.48 17.89l-.917 1.443-3.2-1.28c-5.465-2.177-10.783-6.413-15.322-12.21-.743-.945-1.196-1.595-1.433-2.1-.252-.512-.308-.868-.29-1.34.048-.924.498-2.563 1.16-4.306.664-1.743 1.514-3.618 2.382-5.08.605-1 1.232-2.01 1.896-3.026zm4.114 4.128c-.595.916-1.152 1.773-1.56 2.45-.203.34-.36.64-.488.863-.06.12-.107.21-.134.29-.027.08-.06.122-.075.223-.022.116.135.383.135.383.058.09.153.177.26.284.22.234.543.538.955.89.803.717 1.924 1.647 3.16 2.6 2.454 1.914 5.87 4.6 7.56 5.99 1.03.83 1.82 1.433 2.38 1.82.29.186.513.315.714.4.096.033.175.06.282.06.1 0 .24-.04.31-.14.095-.128.28-.456.535-.9.262-.46.594-1.022.905-1.626 4.69-8.584 14.768-18.57 23.27-23.61.21-.3-2.32.828-2.633 1.02-9.778 5.975-17.35 11.88-23.846 23.06 0 0-.506-.17-1.06-.624-5.087-4.086-7.317-6.865-9.14-10.163-1.01-2.293 3.833-10.35 5.395-12.495l-3.636 4.492c-1.124 1.532-2.22 3.092-3.29 4.732zm13.064 23.306c.77-1.068 1.766-2.433 2.825-3.828 2.103-2.814 4.414-5.806 5.45-7.016 3.39-3.99 4.843-5.448 10.27-10.24 4.633-4.098 8.692-7.224 11.93-9.192 1.61-.98 3.038-1.682 4.197-2.07 1.16-.385 2.06-.47 2.662-.265.51.173.973.58 1.27 1.07.292.49.41 1.026.282 1.41-.033.093-.07.152-.09.162-.007.015-.007.015-.044.02-.07-.006-.34-.097-.773-.334-.526-.285-.998-.41-1.77-.175-.77.235-1.916.787-4.088 1.858-8.553 4.242-15.37 10.528-25.5 23.544-.386.508-.76.984-1.13 1.443 6.472-7.308 18.84-19.76 28.314-24.363 1.183-.556 1.928-.87 2.45-.995.536-.12.854-.064 1.33.098.54.186.945.36 1.167.487.117.075.186.134.19.17.02.044.006.038.01.076-.02.064-.18.276-.54.545-.35.252-.9.563-1.62.957-10.597 5.728-22.374 16.75-31.574 29.532-.68.957-1.173 1.57-1.5 1.903-.16.157-.303.27-.362.284-.02.01-.004.015-.004.015l-.017-.006c-.197-.156-.43-.2-.706-.22-.277-.025-.606.005-.9.083-.446.114-.647.134-.886.053-.238-.08-.566-.314-1.142-.81-.333-.274-.587-.52-.766-.723-.17-.18-.26-.336-.275-.394.157-1.56.36-1.74 1.33-3.078zm4.407 5.61c.016-.03.037-.04.05-.036.17-.243.42-.603.71-1 .6-.808 1.41-1.898 2.3-3.05 9.197-12.146 19.16-21.28 30.04-27.518.97-.557 1.637-.898 2.116-1.055.48-.157.776-.144 1.094-.036.222.075.43.2.54.29.025.026.04.032.052.053-.027.024-.054.05-.102.09-.122.1-.314.245-.544.4-.463.32-1.076.714-1.726 1.114-12.277 7.43-25.378 19.74-32.074 30.11-.83 1.295-1.37 2-1.658 2.167-.15.074-.17.085-.277.03-.1-.07-.26-.23-.45-.506-.103-.16-.19-.33-.23-.467-.035-.102-.04-.192-.05-.213l.005-.015c.08-.132.15-.286.21-.355zm2.79.56c.6-.88 1.38-1.964 2.237-3.127 1.702-2.294 3.697-4.826 5.087-6.41 2.758-3.16 8.35-8.657 11.4-11.22 3.176-2.664 7.244-5.66 10.613-7.905 1.674-1.117 3.198-2.053 4.31-2.668.566-.307 1.013-.528 1.343-.664.164-.068.313-.088.393-.114.036-.007.073-.01.073-.01.29.24.994.726 1.677 1.17.598.38.984.6 1.462.657.483.04.982-.073 1.823-.302 2.03-.553 5.747-.32 10.807.708 5.06 1.027 11.465 2.847 18.954 5.39 12.256 4.164 19.102 7.766 22.473 11.73 2.16 2.524 4.12 7.25 4.66 11.3.13.967.227 1.886.287 2.598.04.35.05.64.065.857.006.09.016.164-.006.228-.05-.016-.11-.038-.22-.092-.284-.15-.702-.434-1.15-.78-.863-.702-1.834-1.653-2.33-2.388-.41-.62-.573-.922-.56-1.06 0-.053 0-.106.07-.207.07-.1.207-.247.394-.43.293-.29.533-.53.683-.71.07-.1.144-.164.177-.26.047-.09.095-.18.01-.35-.025-.08-.11-.143-.173-.165-.063-.022-.116-.022-.153-.017-.09.004-.186.025-.298.04-.22.07-.485.173-.84.335-.337.153-.66.274-.906.315-.117.03-.218.013-.27.013 0 0-.006.016-.006-.037.01-.084.032-.2.065-.35.08-.29.21-.672.4-1.07.25-.535.39-.895.45-1.176.463-1.777-.51-4.29-.51-4.29s-.045 3.16-.834 4.54c-.146.43-.365.658-.56.768-.205.126-.41.11-.63.017-.42-.177-.8-.77-.67-1.68.134-.967.124-2.14.024-3.204-.114-1.067-.305-2.02-.615-2.567-.134-.24-.255-.406-.355-.53-.026-.025-.052-.052-.094-.084-.042-.033-.1-.07-.21-.055-.113.016-.21.143-.23.206-.02.064-.04.112-.018.154.014.22.14 1.308.277 2.47.13 1.13.192 2.62.125 3.184l-.12.774-.9-.48c-.842-.445-1.454-1.15-2.32-2.774-1.24-2.354-3.215-4.532-5.126-5.59-2.088-.85-4.2-2.1-6.34-2.95 3.17 1.892 4.72 2.915 6.956 4.792 1.067 1.088 2.37 2.843 2.852 3.77l.67 1.31-1.527-.307c-1.154-.25-2.98-.41-4.13-.374-1.092.036-2.52-.094-3.076-.283-.594-.184-1.072-.293-1.422-.36-.17-.02-.323-.038-.445-.044-.128.01-.245-.01-.36.126-.06.067-10.265-3.256-10.26-3.166.005.09 10.22 3.596 10.255 3.644.075.096.175.166.307.246.264.16.635.375 1.18.596 1.303.548 2.61 1.4 3.63 2.366.776.744 1.273 1.16 2.2 1.617.932.44 2.262.91 4.79 1.77 5.756 1.95 7.577 2.91 11.91 6.19 2.974 2.25 5.02 4.734 5.74 6.894.544 1.585.22 4.313-1.27 9.853-.267.99-.48 1.876-.632 2.534-.07.314-.124.58-.152.765l-.028.24c.006.036-.016.046.01.126.005.038.026.08.11.145.09.048.213.054.277.023.127-.064.122-.1.133-.133.01-.032.037-.058.048-.09.044-.074.097-.18.157-.302.123-.258.258-.603.45-1.016.362-.855.846-2.02 1.347-3.287l1.54-3.858.234.878c.837 3.175.594 5.717-.93 10.2-1.602 4.723-3.652 8.407-7.627 13.69-3.986 5.314-9.24 10.658-14.235 14.76-4.983 4.126-9.736 6.998-12.59 7.412-.41.056-.79.086-1.078.095-.016-.004-.016-.004-.053 0 .06-.07.09-.11.17-.19.28-.294.68-.69 1.124-1.11 6.352-6.015 10.202-10.72 13.707-18.325-3.79 5.735-13.27 22.005-26.552 18.292-3.853-1.184-4.54-1.507-7.34-3.344l-2.957-1.945c-1.09-1.078-1.856-1.428-2.993-2.364 0 0 .005-.015-.017-.005.016.005-.195-.102-.45-.295-.243-.172-.565-.423-.946-.712-.77-.6-1.786-1.42-2.89-2.346-2.225-1.855-4.868-4.1-6.807-5.858-7.79-7.08-16.455-15.98-25.25-25.955-4.75-5.39-6.13-7.65-7.913-13.045-.288-.878-.528-1.74-.673-2.41-.082-.33-.13-.61-.16-.834-.03-.222.01-.39-.007-.34.074-.22.482-.9 1.08-1.78zm77.75-7.984c.08-.026.174-.047.302-.057.35-.04.85-.048 1.407-.018 1.12.042 2.51.23 3.59.492 4.11 1.005 7.95 3.64 9.765 6.65l.17.288-.192-.118c-.352-.21-1.22-.575-2.44-1.06-1.203-.48-2.734-1.035-4.266-1.59-2.5-.886-3.932-1.425-4.896-1.876-.98-.458-1.475-.82-2.173-1.43-.423-.376-.776-.744-1.035-1.027-.08-.08-.174-.166-.232-.257zm8.872 1.8c.676-2.72.22-5.707-1.22-8.096-.823-1.37-1.958-2.55-3.297-3.42 1.27 1.067 2.162 2.548 2.524 4.16.412 1.87.08 3.888-.924 5.52l2.916 1.838m-4.075-2.466c-.718-3.323-2.732-6.335-5.505-8.298-2.786-1.972-6.307-2.838-9.695-2.385 3.138.103 6.22 1.51 8.36 3.814 1.443 1.565 2.462 3.493 2.927 5.558l3.913 1.31m-49.335-24.66c-3.244 3.88-6.286 7.91-9.09 12.1-2.92 4.337-5.58 8.825-8.014 13.463 2.72-4.55 5.82-8.884 9.264-12.913 3.387-3.945 7.106-7.63 11.09-10.955l-3.25-1.696m26.117 95.517c3.714-2.495 6.954-5.73 9.437-9.47 1.432-2.155 2.626-4.47 3.545-6.885-1.385 2.268-3.004 4.4-4.805 6.352-3.494 3.773-7.708 6.865-12.357 9.064l4.18.936"/><path d="M160.087 312.965c5.816 3.868 12.358 14.666 22.908 23.905 10.988 9.612 15.86 15.842 23.124 18.168 7.27 2.312 12.14 1.004 14.66-2.78 2.514-3.783 2.43-2.345 11.62-13.007 9.2-10.67 10.93-9.32 15.75-21.273-10.87 6.677-17.747 14.736-25.31 21.527-18.026 16.19-40.23-17.92-47.99-22.66-4.997-7.866 15.182-40.184 11.68-34.793-4.458 6.03-10.04 20.324-26.447 30.92z" fill="#ED4723"/><path d="M153.625 302.382c2.992-4.074 6.2-7.984 9.597-11.727 3.52-3.864 7.26-7.54 11.176-11-3.763 3.743-7.23 7.803-10.348 12.096-3.365 4.64-6.342 9.57-8.876 14.718l-1.55-4.082m31.886-41.897c-5.67 3.082-11.02 6.72-15.98 10.837-7.126 5.912-13.41 12.808-18.634 20.45 6.382-7.802 14.08-14.545 22.648-19.862 4.674-2.895 9.624-5.383 14.742-7.396l-.544-2.22-2.233-1.81m76.544 53.534c-.502 5.952-2.535 11.775-5.858 16.74-2.763 4.124-6.41 7.662-10.612 10.304 4.692-3.772 8.383-8.775 10.622-14.36 2.35-5.875 3.094-12.373 2.107-18.607l3.74 5.92"/><path d="M127.195 279.428c-.084.248-.105 2.073 4.84 6.978 4.882 4.844 14.277 8.83 14.277 8.83s-11.77-8.194-14.825-13.72c-3.04-5.52-1.756-8.667-1.756-8.667s-.6.57-1.7 3.31c-1.102 2.76-.83 3.264-.83 3.264z" fill="#ED4723"/><path d="M118.372 278.654l4.53 2.123 1.4-.1c1.12-7.763 3.89-15.3 8.065-21.94 5.195-8.268 12.562-15.152 21.15-19.77-7.768 3.81-14.824 9.1-20.68 15.474-6.4 6.986-11.348 15.276-14.465 24.218" stroke="#000" stroke-width=".168"/><path d="M148.106 296.61l-.265 1.28s1.15 1.225 1.82 1.49c.32.13.97-.085.97-.085s1.472-6.074 3.382-8.947c1.91-2.872 4.358-5.368 4.358-5.368s-3.782 3.165-5.972 5.85c-2.205 2.678-4.288 5.78-4.288 5.78zm47.674-21.268l4.117-3.67s12.61 1.252 20.626 4.482c8.032 3.24 10.588 5.687 10.588 5.687s-13.72-5.87-19.433-6.11c-5.713-.223-15.893-.384-15.893-.384z" fill="#ED4723"/></svg>